<svg xmlns="http://www.w3.org/2000/svg" xmlns:xlink="http://www.w3.org/1999/xlink" id="Layer_1" x="0" y="0" enable-background="new 0 0 90.709 90.709" version="1.1" viewBox="0 0 90.709 90.709" xml:space="preserve"><rect width="89.236" height="89.236" x=".75" y=".736" fill="none" stroke="#FFF" stroke-miterlimit="10"/><g><g><path fill="#2E5BA1" d="M53.286,63.972c0-0.726,0.49-1.655,1.088-2.066L70.1,51.119c0.598-0.41,1.088-0.153,1.088,0.573v20.457 c0,0.726-0.49,1.654-1.089,2.064L54.375,84.964c-0.599,0.41-1.089,0.151-1.089-0.575V63.972z"/></g><g><linearGradient id="SVGID_1_" x1="43.575" x2="50.378" y1="44.985" y2="54.849" gradientUnits="userSpaceOnUse"><stop offset="0" style="stop-color:#96979c"/><stop offset=".213" style="stop-color:#9f9fa4"/><stop offset=".682" style="stop-color:#afafb2"/><stop offset="1" style="stop-color:#b5b4b8"/></linearGradient><path fill="url(#SVGID_1_)" d="M67.564,50.024c0.598-0.411,0.513-0.897-0.189-1.08L47.83,43.848 c-0.702-0.183-1.766,0.004-2.364,0.415l-15.534,10.68c-0.598,0.411-0.513,0.9,0.188,1.086l19.422,5.163 c0.701,0.186,1.764,0.003,2.362-0.408L67.564,50.024z"/></g><g><path fill="#2E5BA1" d="M27.266,32.12c0-0.726,0.49-1.655,1.088-2.066l15.723-10.79c0.598-0.411,1.088-0.153,1.088,0.573v20.46 c0,0.726-0.49,1.654-1.089,2.064l-15.72,10.749c-0.599,0.41-1.089,0.151-1.089-0.575V32.12z"/></g><g><linearGradient id="SVGID_2_" x1="18.479" x2="23.255" y1="14.116" y2="21.442" gradientUnits="userSpaceOnUse"><stop offset="0" style="stop-color:#96979c"/><stop offset=".213" style="stop-color:#9f9fa4"/><stop offset=".682" style="stop-color:#afafb2"/><stop offset="1" style="stop-color:#b5b4b8"/></linearGradient><path fill="url(#SVGID_2_)" d="M41.539,18.169c0.598-0.411,0.513-0.897-0.189-1.08l-19.539-5.096 c-0.702-0.183-1.766,0.003-2.364,0.414L3.913,23.087c-0.598,0.411-0.513,0.9,0.188,1.087l19.417,5.165 c0.701,0.187,1.764,0.003,2.362-0.408L41.539,18.169z"/></g><g><path fill="#2E5BA1" d="M69.807,26.849c0-0.726,0.49-1.655,1.088-2.066l15.726-10.788c0.598-0.41,1.088-0.153,1.088,0.573v20.459 c0,0.726-0.49,1.654-1.089,2.064L70.896,47.838c-0.599,0.409-1.089,0.151-1.089-0.575V26.849z"/></g><g><linearGradient id="SVGID_3_" x1="61.396" x2="66.747" y1="7.996" y2="18.173" gradientUnits="userSpaceOnUse"><stop offset="0" style="stop-color:#96979c"/><stop offset=".213" style="stop-color:#9f9fa4"/><stop offset=".682" style="stop-color:#afafb2"/><stop offset="1" style="stop-color:#b5b4b8"/></linearGradient><path fill="url(#SVGID_3_)" d="M84.081,12.899c0.598-0.411,0.513-0.897-0.189-1.08L64.351,6.723 c-0.702-0.183-1.766,0.003-2.364,0.415l-15.533,10.68c-0.598,0.411-0.513,0.9,0.188,1.087l19.419,5.164 c0.701,0.186,1.764,0.003,2.362-0.408L84.081,12.899z"/></g></g></svg>